<svg xmlns="http://www.w3.org/2000/svg" viewBox="0 0 358.86 674.38"><defs><style>.cls-1{stroke:#000;stroke-miterlimit:10;}</style></defs><g id="Layer_2" data-name="Layer 2"><g id="Layer_1-2" data-name="Layer 1"><path class="cls-1" d="M123.08.5q-6.19,23.36-12.39,46.72-22.12,83-44.29,166C61,233.62,55,253.84,50,274.31c-4.57,18.8,11.49,38,31.32,38.28,10.67.15,21.34,0,32,0h31.8c-1.91,7.74-3.45,15.18-5.74,22.39-.5,1.6-3.62,3.35-5.56,3.37-20.07.25-40.25,1.5-60.18-.18-26.87-2.26-45.46-23.41-50-48.21-3.07-16.67,3.52-31.32,7.46-46.52Q51.54,164.26,72.74,85.21C80.32,56.9,88.44,28.74,96.29.5H.5V673.88H68.3L256.39.5Z"/><path class="cls-1" d="M358.36.5H283.59c-24.18,86.68-140.69,504.26-188,673.38h135.1c2.77-12,5.4-24,8.55-35.89q22.58-85.23,45.47-170.38c8.13-30.44,15.82-61,24.5-91.27,4.14-14.46-8.5-35.11-23.91-36.07-21.69-1.35-43.46-1.23-65.2-1.73-2-.05-4.05,0-6.48,0,1.86-7.75,3.36-15.23,5.62-22.48.49-1.58,3.68-3.26,5.65-3.28,20.07-.24,40.26-1.48,60.19.17,27.69,2.3,49.76,26.81,51.33,53.89,1,17.23-5.8,32.83-9.91,48.87-15.06,58.87-31,117.51-46.72,176.21-7.33,27.36-14.92,54.65-22.44,82h101Z"/></g></g></svg>