<svg xmlns="http://www.w3.org/2000/svg" viewBox="0 0 414.9121 379.0541"><defs><style>.cls-1{fill:#e6e6e6;}.cls-2{fill:#f0f0f0;}.cls-3{fill:#f5f5f5;}.cls-4,.cls-7,.cls-9{fill:#fff;}.cls-5{fill:#e0e0e0;}.cls-6{fill:#407bff;}.cls-7{opacity:0.4;}.cls-8{fill:#263238;}.cls-11,.cls-9{opacity:0.2;}.cls-10,.cls-13{fill:none;stroke:#407bff;}.cls-10{stroke-linecap:round;stroke-linejoin:round;stroke-width:2.8255px;}.cls-12{fill:#b55b52;}.cls-13{stroke-miterlimit:10;stroke-width:0.9418px;}.cls-14{fill:#ffbf9b;}.cls-15{fill:#fd9b6d;}</style></defs><g id="Background_Complete" data-name="Background Complete"><g id="background-complete--inject-1"><path class="cls-1" d="M457.142,325.2922c-2.0909-5.9939-18.5857,2.1606-25.23,12.0884-4.4529,6.6134-7.171,13.676-8.4333,23.1625.1471-10.8417.3252-22.4578.4879-33.4233,1.3552-2.7337,4.4373-9.0451,6.66-14.04,7.4033-16.6807,25.0056-22.8837,31.0846-33.4156,7.9687-13.8,7.9222-34.4919,1.1384-41.9572-5.8932-6.4895-25.416,37.3883-27.6153,42.29a130.5023,130.5023,0,0,0-11.1746,41.5c.1549-10.3073.31-19.7628.4414-27.1042.41-23.8129.9293-31.4718,1.1616-33.826.8209-1.1538,1.7811-2.4935,2.3232-3.2137,4.7239-6.0791,15.2093-13.32,20.4443-22.1635,7.6511-12.9093,6.4121-28.3587,1.0454-34.0738-5.6066-6.0171-15.5268,8.201-20.785,22.2874s-3.02,27.5688-4.4915,39.27c-.31,2.3232-.6273,11.0121-.9293,23.1-1.5953-13.01-4.7781-21.722-10.6713-29.8455-7.2562-9.99-13.5134-22.148-19.4918-20.576s-2.7568,17.6642,1.9748,28.9628c4.205,10.0672,24.9745,20.0958,28.0334,28.18-.3562,16.3864-.6815,37.1715-.9138,56.4774-1.634-9.9821-.5111-10.8417-7.2174-26.1052-3.9882-9.0915-20.3436-20.2971-22.2874-14.0477-1.9205,6.1255,1.0145,18.0436,7.1865,26.33,4.9794,6.6676,16.03,6.66,18.5857,10.7952.5963.968,2.5633,4.6464,3.6939,6.7915-.2711,23.5961-.3872,44.4276-.2556,51.5289l1.0687.07c-.0464-1.8276.0852-13.8309.2943-29.7217,2.6794-8.4487,20.7463-13.3817,26.33-22.1712C455.446,343.22,459.6433,332.4864,457.142,325.2922Z" transform="translate(-52.9078 -67.5921)"/><path class="cls-1" d="M440.1515,414.9372H405.4892a3.9726,3.9726,0,0,1-3.872-3.1905l-2.4626-12.1349h47.3935l-2.4626,12.1349A3.9726,3.9726,0,0,1,440.1515,414.9372Z" transform="translate(-52.9078 -67.5921)"/><path class="cls-2" d="M447.5084,404.3124h-49.376a2.3233,2.3233,0,0,1-2.3233-2.06l-1.0144-8.9676a2.323,2.323,0,0,1,2.3232-2.5865h51.405a2.3234,2.3234,0,0,1,2.3232,2.5865l-1.0222,8.9521A2.3233,2.3233,0,0,1,447.5084,404.3124Z" transform="translate(-52.9078 -67.5921)"/><rect class="cls-1" y="21.4158" width="69.8023" height="76.6356"/><rect class="cls-3" x="0.9302" y="21.4158" width="74.8447" height="76.6356"/><rect class="cls-4" x="5.7031" y="26.1887" width="65.2989" height="67.0898"/><path class="cls-3" d="M81.4842,151.1857h0a19.9087,19.9087,0,0,1-.0126-28.1552l.0126-.0126,19.5523-19.5523h0a19.9263,19.9263,0,0,1,0,28.1679Z" transform="translate(-52.9078 -67.5921)"/><rect class="cls-1" x="1.03" y="138.4676" width="47.51" height="53.62"/><rect class="cls-3" x="2.19" y="138.4676" width="53.22" height="53.62"/><rect class="cls-4" x="7.69" y="143.9576" width="42.2401" height="42.65"/><rect class="cls-3" x="72.8791" y="224.0495" width="17.65" height="17.65" rx="5.4" transform="translate(-193.6443 58.3888) rotate(-45)"/></g><rect class="cls-1" x="131.3" y="205.4513" width="21.6476" height="109.2125"/><rect class="cls-2" x="37.8874" y="205.4592" width="93.4126" height="109.2125"/><rect class="cls-1" x="46.3975" y="247.4708" width="76.3925" height="25.1736"/><rect class="cls-1" x="46.3975" y="278.2622" width="76.3925" height="25.1737"/><path class="cls-2" d="M128.9241,318.4384h17.1548a2.1156,2.1156,0,0,0,2.1077-2.1078h0a2.1155,2.1155,0,0,0-2.1077-2.1156H128.9241a2.1156,2.1156,0,0,0-2.1077,2.1156h0A2.1158,2.1158,0,0,0,128.9241,318.4384Z" transform="translate(-52.9078 -67.5921)"/><rect class="cls-1" x="46.3975" y="216.6871" width="76.3925" height="25.1736"/><path class="cls-2" d="M128.9241,287.6547h17.1548a2.1156,2.1156,0,0,0,2.1077-2.1155h0a2.1158,2.1158,0,0,0-2.1077-2.1079H128.9241a2.1159,2.1159,0,0,0-2.1077,2.1079h0A2.1157,2.1157,0,0,0,128.9241,287.6547Z" transform="translate(-52.9078 -67.5921)"/><path class="cls-2" d="M128.9241,349.23h17.1548a2.1155,2.1155,0,0,0,2.1077-2.1155h0a2.1155,2.1155,0,0,0-2.1077-2.1077H128.9241a2.1156,2.1156,0,0,0-2.1077,2.1077h0A2.1156,2.1156,0,0,0,128.9241,349.23Z" transform="translate(-52.9078 -67.5921)"/><rect class="cls-1" x="35.0032" y="199.7066" width="96.2969" height="5.7447"/><rect class="cls-5" x="131.3" y="199.7146" width="24.6745" height="5.7446"/></g><g id="Shadow"><ellipse class="cls-3" cx="203.097" cy="365.2294" rx="175.1701" ry="13.8247"/></g><g id="Mechanisms"><path class="cls-6" d="M397.6409,128.8314a75.9731,75.9731,0,0,0-5.7016-13.7882h0l3.5526-11.6268-22.9431-22.943L360.91,84.0385h0a72.1823,72.1823,0,0,0-13.7758-5.7141h0l-5.7015-10.7323h-32.483l-5.714,10.7323A72.8606,72.8606,0,0,0,289.46,84.0385h0l-11.6268-3.5651L254.865,103.4413l3.5526,11.6268h0a74.2278,74.2278,0,0,0-5.7016,13.7882l-10.7448,5.7015v32.483l10.7324,5.714h0a73.77,73.77,0,0,0,5.7016,13.7757h0l-3.5527,11.6145,22.968,22.9678,11.6267-3.5526a72.8029,72.8029,0,0,0,13.7882,5.6891l5.714,10.7448h32.483l5.7015-10.7323h0a73.8186,73.8186,0,0,0,13.7758-5.714L372.5488,221.1l22.968-22.9679-3.5526-11.6268h0a75.5011,75.5011,0,0,0,5.6767-13.7757h0l10.7324-5.7141V134.533ZM325.1847,209.66a58.8917,58.8917,0,1,1,58.8916-58.8916A58.8917,58.8917,0,0,1,325.1847,209.66Z" transform="translate(-52.9078 -67.5921)"/><path class="cls-6" d="M325.1847,100.1371a50.6436,50.6436,0,1,0,50.6559,50.6436A50.6436,50.6436,0,0,0,325.1847,100.1371Zm0,94.5422a43.8986,43.8986,0,1,1,43.8861-43.911v.0124A43.9483,43.9483,0,0,1,325.1847,194.6793Z" transform="translate(-52.9078 -67.5921)"/><path class="cls-7" d="M397.6409,128.8314a75.9731,75.9731,0,0,0-5.7016-13.7882h0l3.5526-11.6268-22.9431-22.943L360.91,84.0385h0a72.1823,72.1823,0,0,0-13.7758-5.7141h0l-5.7015-10.7323h-32.483l-5.714,10.7323A72.8606,72.8606,0,0,0,289.46,84.0385h0l-11.6268-3.5651L254.865,103.4413l3.5526,11.6268h0a74.2278,74.2278,0,0,0-5.7016,13.7882l-10.7448,5.7015v32.483l10.7324,5.714h0a73.77,73.77,0,0,0,5.7016,13.7757h0l-3.5527,11.6145,22.968,22.9678,11.6267-3.5526a72.8029,72.8029,0,0,0,13.7882,5.6891l5.714,10.7448h32.483l5.7015-10.7323h0a73.8186,73.8186,0,0,0,13.7758-5.714L372.5488,221.1l22.968-22.9679-3.5526-11.6268h0a75.5011,75.5011,0,0,0,5.6767-13.7757h0l10.7324-5.7141V134.533ZM325.1847,209.66a58.8917,58.8917,0,1,1,58.8916-58.8916A58.8917,58.8917,0,0,1,325.1847,209.66Z" transform="translate(-52.9078 -67.5921)"/><path class="cls-7" d="M325.1847,100.1371a50.6436,50.6436,0,1,0,50.6559,50.6436A50.6436,50.6436,0,0,0,325.1847,100.1371Zm0,94.5422a43.8986,43.8986,0,1,1,43.8861-43.911v.0124A43.9483,43.9483,0,0,1,325.1847,194.6793Z" transform="translate(-52.9078 -67.5921)"/><path class="cls-8" d="M193.3168,193.1191a39.83,39.83,0,0,0-3.0327-7.3086l1.8837-6.169L179.99,167.4542l-6.169,1.8837a39.8411,39.8411,0,0,0-7.3087-3.0328l-3.0327-5.651H146.244l-3.0233,5.651a39.5646,39.5646,0,0,0-7.3086,3.0328l-6.169-1.8837-12.1873,12.1873,1.8836,6.169a40.5069,40.5069,0,0,0-3.0233,7.3086l-5.6981,3.0327v17.2356l5.6981,3.0233a40.1944,40.1944,0,0,0,3.0233,7.3086l-1.8836,6.169,12.1873,12.1873,6.169-1.8836a40.19,40.19,0,0,0,7.3086,3.0233l3.0233,5.651H163.48l3.0327-5.651a40.4976,40.4976,0,0,0,7.3087-3.0233l6.169,1.8836,12.1873-12.1873-1.8837-6.169a39.5476,39.5476,0,0,0,3.0327-7.3086l5.6981-3.0233V196.1518Zm-38.455,36.1288A24.4877,24.4877,0,1,1,179.3494,204.76a24.4877,24.4877,0,0,1-24.4876,24.4877Z" transform="translate(-52.9078 -67.5921)"/><path class="cls-6" d="M193.3168,193.1191a39.83,39.83,0,0,0-3.0327-7.3086l1.8837-6.169L179.99,167.4542l-6.169,1.8837a39.8411,39.8411,0,0,0-7.3087-3.0328l-3.0327-5.651H146.244l-3.0233,5.651a39.5646,39.5646,0,0,0-7.3086,3.0328l-6.169-1.8837-12.1873,12.1873,1.8836,6.169a40.5069,40.5069,0,0,0-3.0233,7.3086l-5.6981,3.0327v17.2356l5.6981,3.0233a40.1944,40.1944,0,0,0,3.0233,7.3086l-1.8836,6.169,12.1873,12.1873,6.169-1.8836a40.19,40.19,0,0,0,7.3086,3.0233l3.0233,5.651H163.48l3.0327-5.651a40.4976,40.4976,0,0,0,7.3087-3.0233l6.169,1.8836,12.1873-12.1873-1.8837-6.169a39.5476,39.5476,0,0,0,3.0327-7.3086l5.6981-3.0233V196.1518Zm-38.455,36.1288A24.4877,24.4877,0,1,1,179.3494,204.76a24.4877,24.4877,0,0,1-24.4876,24.4877Z" transform="translate(-52.9078 -67.5921)"/><path class="cls-8" d="M154.8618,196.651A8.1186,8.1186,0,1,0,162.98,204.77h0A8.1186,8.1186,0,0,0,154.8618,196.651Z" transform="translate(-52.9078 -67.5921)"/><path class="cls-7" d="M193.3168,193.1191a39.83,39.83,0,0,0-3.0327-7.3086l1.8837-6.169L179.99,167.4542l-6.169,1.8837a39.8411,39.8411,0,0,0-7.3087-3.0328l-3.0327-5.651H146.244l-3.0233,5.651a39.5646,39.5646,0,0,0-7.3086,3.0328l-6.169-1.8837-12.1873,12.1873,1.8836,6.169a40.5069,40.5069,0,0,0-3.0233,7.3086l-5.6981,3.0327v17.2356l5.6981,3.0233a40.1944,40.1944,0,0,0,3.0233,7.3086l-1.8836,6.169,12.1873,12.1873,6.169-1.8836a40.19,40.19,0,0,0,7.3086,3.0233l3.0233,5.651H163.48l3.0327-5.651a40.4976,40.4976,0,0,0,7.3087-3.0233l6.169,1.8836,12.1873-12.1873-1.8837-6.169a39.5476,39.5476,0,0,0,3.0327-7.3086l5.6981-3.0233V196.1518Zm-38.455,36.1288A24.4877,24.4877,0,1,1,179.3494,204.76a24.4877,24.4877,0,0,1-24.4876,24.4877Z" transform="translate(-52.9078 -67.5921)"/><path class="cls-9" d="M154.8618,196.651A8.1186,8.1186,0,1,0,162.98,204.77h0A8.1186,8.1186,0,0,0,154.8618,196.651Z" transform="translate(-52.9078 -67.5921)"/><path class="cls-8" d="M209.0356,177.4894l-6.5928-2.7219-.2449-2.477a15.4145,15.4145,0,0,1-1.7141-1.7047l-2.4676-.2449-2.7219-6.5928,1.5823-1.8837a14.9349,14.9349,0,0,1,0-2.43l-1.5823-1.8837,2.7219-6.5928,2.4676-.2355a16.3556,16.3556,0,0,1,1.7141-1.7141l.2449-2.4676,6.5928-2.7219,1.8837,1.5823a14.9349,14.9349,0,0,1,2.43,0l1.8837-1.5823,6.5928,2.7219.2355,2.4676a16.3556,16.3556,0,0,1,1.7141,1.7141l2.4676.2355,2.7219,6.5928-1.5822,1.8837a14.9575,14.9575,0,0,1,0,2.43l1.5822,1.8837-2.7219,6.5928-2.4676.2449a14.7283,14.7283,0,0,1-1.7141,1.7141l-.2355,2.4676-6.5928,2.7219-1.8837-1.5823a14.82,14.82,0,0,1-2.4205,0Zm4.7846-3.0421,1.7141,1.4127,5.0011-2.072.2072-2.2039.2355-.1883a14.3818,14.3818,0,0,0,1.9307-1.8837l.179-.2355,2.2133-.2072,2.072-5.0011-1.4127-1.7141v-.292a13.2342,13.2342,0,0,0,0-2.7313v-.292l1.4127-1.7141-2.072-5.0012-2.2039-.2072-.1884-.2354a14.3757,14.3757,0,0,0-1.9307-1.8837l-.2355-.1884-.2072-2.2039-5.0011-2.072-1.7141,1.4128h-.292a13.2342,13.2342,0,0,0-2.7313,0h-.292l-1.7141-1.4128-5.0012,2.072-.2072,2.2039-.226.1884a13.9148,13.9148,0,0,0-1.94,1.8837l-.1884.2354-2.2038.2072-2.0909,4.9635,1.4127,1.7141v.292a13.2482,13.2482,0,0,0,0,2.7313v.292l-1.4127,1.7141,2.072,5.0012,2.2039.2072.1884.226a13.3731,13.3731,0,0,0,1.9307,1.9308l.2355.1883.2072,2.2133,5.0011,2.0721,1.7142-1.4128h.2919a13.2352,13.2352,0,0,0,2.7314,0Z" transform="translate(-52.9078 -67.5921)"/><path class="cls-8" d="M215.0916,167.7226a7.6571,7.6571,0,1,1,4.143-10.0049l.0011.0026a7.6479,7.6479,0,0,1-4.1293,9.9962Z" transform="translate(-52.9078 -67.5921)"/></g><g id="Character"><rect class="cls-8" x="159.7509" y="277.6934" width="4.9333" height="154.0692" transform="translate(271.5273 641.8639) rotate(180)"/><path class="cls-6" d="M285.1658,335.519h81.4168a0,0,0,0,1,0,0v11.2865a0,0,0,0,1,0,0H285.1659a3.7077,3.7077,0,0,1-3.7077-3.7077v-3.8712A3.7076,3.7076,0,0,1,285.1658,335.519Z" transform="translate(595.133 614.7324) rotate(180)"/><line class="cls-10" x1="306.8294" y1="365.0289" x2="300.9296" y2="271.7745"/><line class="cls-10" x1="284.2375" y1="369.6525" x2="278.3378" y2="276.3981"/><line class="cls-10" x1="225.0329" y1="365.0289" x2="230.9328" y2="271.7745"/><line class="cls-10" x1="247.6248" y1="369.6525" x2="253.5246" y2="276.3981"/><path class="cls-6" d="M292.3909,328.08h81.4169a0,0,0,0,1,0,0v11.2864a0,0,0,0,1,0,0H292.3909a3.7076,3.7076,0,0,1-3.7076-3.7076v-3.8712A3.7076,3.7076,0,0,1,292.3909,328.08Z" transform="translate(609.5833 599.8547) rotate(180)"/><path class="cls-11" d="M292.3909,328.08h81.4169a0,0,0,0,1,0,0v11.2864a0,0,0,0,1,0,0H292.3909a3.7076,3.7076,0,0,1-3.7076-3.7076v-3.8712A3.7076,3.7076,0,0,1,292.3909,328.08Z" transform="translate(609.5833 599.8547) rotate(180)"/><rect class="cls-8" x="288.0965" y="281.3745" width="4.9333" height="154.0691" transform="translate(528.2185 649.226) rotate(180)"/><path class="cls-8" d="M304.901,293.0988s-56.3506,2.1168-65.714,24.7449c0,0,1.3,67.364,8.8431,89.4719l16.1259-1.8207-2.5791-65.5121,58.2908-46.884Z" transform="translate(-52.9078 -67.5921)"/><path class="cls-11" d="M304.901,293.0988s-56.3506,2.1168-65.714,24.7449c0,0,1.3,67.364,8.8431,89.4719l16.1259-1.8207-2.5791-65.5121,58.2908-46.884Z" transform="translate(-52.9078 -67.5921)"/><polygon class="cls-12" points="208.577 354.757 198.514 354.757 198.377 348.051 198.275 342.793 208.108 343.39 208.304 348.051 208.577 354.757"/><polygon class="cls-11" points="208.304 348.051 198.377 348.051 198.275 342.793 208.108 343.39 208.304 348.051"/><polygon class="cls-6" points="213.079 344.928 191.525 345.58 187.59 337.579 212.487 337.349 213.079 344.928"/><path class="cls-13" d="M248.8417,423.8666s.514-5.9062-1.5374-5.0857C245.2345,419.6089,247.5406,422.6247,248.8417,423.8666Z" transform="translate(-52.9078 -67.5921)"/><path class="cls-13" d="M248.8417,423.8666s-4.435-3.0949-5.5585-1.5178S248.8417,423.8666,248.8417,423.8666Z" transform="translate(-52.9078 -67.5921)"/><path class="cls-8" d="M252.3514,420.99l7.9584.0843a2.2665,2.2665,0,0,1,2.2187,2.0914l.56,7.0759a2.1787,2.1787,0,0,1-2.2283,2.3739c-4.3308-.1254-13.243-.36-16.3993-.2685-4.2334.1228-10.2387.1889-11.0978-1.416a2.0909,2.0909,0,0,1,.5082-2.6605s11.5245-1.0694,16.8323-6.5507A2.2678,2.2678,0,0,1,252.3514,420.99Z" transform="translate(-52.9078 -67.5921)"/><path class="cls-8" d="M355.4631,293.0988s1.0629,13.1343.6637,23.2835c-.46,11.6979-25.6472,22.0087-62.32,16.0266,0,0-2.861,19.7671-13.0047,37.9735s-26.0093,45.2562-26.0093,45.2562L239.187,405.4949s20.5473-56.96,24.4487-72.8259,5.462-23.4083,16.646-28.35,35.6326-11.22,35.6326-11.22Z" transform="translate(-52.9078 -67.5921)"/><polygon class="cls-12" points="195.934 345.065 194.085 347.911 190.012 354.183 182.198 349.624 186.297 343.267 187.882 340.805 195.934 345.065"/><polygon class="cls-11" points="195.934 345.065 194.085 347.911 186.297 343.267 187.882 340.805 195.934 345.065"/><polygon class="cls-6" points="205.962 342.793 185.514 330.545 182.198 338.717 201.616 349.925 205.962 342.793"/><path class="cls-13" d="M229.7649,417.5169s1.49-5.1215-.1862-5.2146S229.7649,417.5169,229.7649,417.5169Z" transform="translate(-52.9078 -67.5921)"/><path class="cls-13" d="M229.367,417.3306s-2.3025-5.56-4.1648-4.3165S229.367,417.3306,229.367,417.3306Z" transform="translate(-52.9078 -67.5921)"/><path class="cls-8" d="M236.1192,416.6617l6.8207,4.0252a2.202,2.202,0,0,1,.8548,2.8723l-3.0988,6.2672a2.1987,2.1987,0,0,1-3.1235.9021c-3.6713-2.2575-11.2385-6.8838-14.0068-8.3745-3.7129-1.9992-8.9255-4.9268-8.8541-6.7119a2.0732,2.0732,0,0,1,1.7852-1.9993s10.48,4.82,17.8323,2.8181A2.3061,2.3061,0,0,1,236.1192,416.6617Z" transform="translate(-52.9078 -67.5921)"/><path class="cls-14" d="M292.1564,235.7245s-2.0951,22.9364-1.2519,28.839c0,0-21.9245,3.2043-33.0552,1.6865l-7.4206-1.8551-9.2757,2.2632,2.53,7.35h7.4205s5.3967,1.5178,7.7579,0c0,0,18.5514,3.71,29.5135,2.53s14.357-5.3492,14.8413-13.6606c.4651-7.9866,5.7376-25.818,1.5214-29.8657Z" transform="translate(-52.9078 -67.5921)"/><path class="cls-6" d="M367.437,238.2972s-8.4072-21.3565-16.5895-26.1818-46.0532,4.4058-46.0532,4.4058-16.2546,5.2315-17.1857,30.6206l14.9314,6.33,2.361,39.6267h50.5621l-.2721-51.3335Z" transform="translate(-52.9078 -67.5921)"/><path class="cls-8" d="M305.484,174.6572s-5.0081-.624-6.3639-4.3791,3.8573-1.8571,3.42-8.6356,7.349-8.4052,13.0134-5.4227,14.612-.2711,18.0013,3.796,1.898,7.8629,1.898,7.8629,9.7165,10.9852-2.5981,18.5072S305.484,174.6572,305.484,174.6572Z" transform="translate(-52.9078 -67.5921)"/><path class="cls-14" d="M334.8842,211.2083c-5.4024,8.2312-10.2593,9.0833-16.7778,9.0748-7.3024-.0256-4.8569-5.1978-4.8569-5.1978,3.059-1.5253,5.2914-3.17,5.6409-6.936a16.0043,16.0043,0,0,0,.051-2.1984,19.4365,19.4365,0,0,0-.8691-4.9763c-10.3529.9373-14-4.1156-15.2951-13.642a29.3531,29.3531,0,0,1,3.059-17.05c5.9988,7.0553,17.289,1.5252,17.289,1.5252-3.17,9.1771,4.5928,12.4661,4.5928,12.4661,3.05-1.8831,5.4024-.2385,5.1722,3.4084a5.1129,5.1129,0,0,1-3.4084,4.5929C328.8939,208.4986,334.8842,211.2083,334.8842,211.2083Z" transform="translate(-52.9078 -67.5921)"/><path class="cls-8" d="M308.6912,191.0594a.32.32,0,0,1-.0174-.6386c3.6147-.1952,5.0277-1.93,5.0418-1.9473a.3194.3194,0,0,1,.5034.3932c-.0623.0808-1.5826,1.98-5.51,2.1923Z" transform="translate(-52.9078 -67.5921)"/><path class="cls-15" d="M308.691,187.119l-.5863-6.0694-2.6207,5.5176A3.2762,3.2762,0,0,0,308.691,187.119Z" transform="translate(-52.9078 -67.5921)"/><path class="cls-8" d="M312.7257,181.05c0,.7619.3551,1.38.7933,1.38s.7931-.6176.7931-1.38-.3551-1.3794-.7931-1.3794S312.7257,180.2878,312.7257,181.05Z" transform="translate(-52.9078 -67.5921)"/><path class="cls-8" d="M303.8976,181.05c0,.7619.355,1.38.7932,1.38s.7932-.6176.7932-1.38-.3552-1.3794-.7932-1.3794S303.8976,180.2878,303.8976,181.05Z" transform="translate(-52.9078 -67.5921)"/><path class="cls-8" d="M317.9677,177.9585a.4257.4257,0,0,1-.3478-.18c-.054-.0753-1.3571-1.8361-4.4035-1.276a.4259.4259,0,1,1-.1532-.838c3.6006-.6632,5.1884,1.5295,5.2532,1.6235a.4255.4255,0,0,1-.3487.67Z" transform="translate(-52.9078 -67.5921)"/><path class="cls-8" d="M303.3457,177.44a.4258.4258,0,0,1-.3794-.6194,3.3376,3.3376,0,0,1,3.3326-1.5724.4261.4261,0,0,1-.1123.8447,2.4949,2.4949,0,0,0-2.4615,1.1146A.4251.4251,0,0,1,303.3457,177.44Z" transform="translate(-52.9078 -67.5921)"/><path class="cls-11" d="M321.4977,200.0373a22.7,22.7,0,0,1-2.5563,5.9136,19.4365,19.4365,0,0,0-.8691-4.9763Z" transform="translate(-52.9078 -67.5921)"/><polygon class="cls-11" points="249.632 185.88 249.631 179.55 247.074 184.795 249.632 185.88"/><polygon class="cls-11" points="291.364 177.43 289.413 166.034 288.862 178.433 291.364 177.43"/><path class="cls-14" d="M358.223,268.9206c-.1277,8.325-3.8771,12.4832-14.8435,13.6591-10.9579,1.1844-29.508-2.5308-29.508-2.5308-2.36,1.5253-7.7625,0-7.7625,0h-7.4218l-2.5222-7.3449,9.2708-2.2667,7.4217,1.8576c11.1283,1.5168,33.0528-1.6871,33.0528-1.6871-.6307-4.4224-1.34-18.8454-1.6381-25.5854l13.0771-3.8683C358.6359,249.9478,358.3337,261.7374,358.223,268.9206Z" transform="translate(-52.9078 -67.5921)"/><path class="cls-6" d="M164.7662,225.4158l8.8584,45.11a4.302,4.302,0,0,0,4.2213,3.473h74.9312a4.302,4.302,0,0,0,4.2353-5.0568l-8.04-45.11a4.3019,4.3019,0,0,0-4.2351-3.547H168.9876A4.302,4.302,0,0,0,164.7662,225.4158Z" transform="translate(-52.9078 -67.5921)"/><path class="cls-11" d="M245.874,220.285l9.3607,53.7136h0a2.2435,2.2435,0,0,0,2.2088-2.6373L248.67,222.1349a2.2436,2.2436,0,0,0-2.2089-1.85Z" transform="translate(-52.9078 -67.5921)"/><path class="cls-6" d="M174.5045,278.306H289.74a4.3134,4.3134,0,0,0-4.3075-4.3074H178.8271A4.3164,4.3164,0,0,0,174.5045,278.306Z" transform="translate(-52.9078 -67.5921)"/><path class="cls-11" d="M251.6731,278.306H289.74a4.3134,4.3134,0,0,0-4.3075-4.3074H255.9958A4.3165,4.3165,0,0,0,251.6731,278.306Z" transform="translate(-52.9078 -67.5921)"/><path class="cls-7" d="M201.7306,248.8194c.8059,5.6145,4.6866,9.7027,8.6675,9.1312s6.5547-5.5863,5.7487-11.2007-4.6865-9.7027-8.6675-9.1312S200.9247,243.2049,201.7306,248.8194Z" transform="translate(-52.9078 -67.5921)"/><path class="cls-11" d="M174.5045,278.306H289.74a4.3134,4.3134,0,0,0-4.3075-4.3074H178.8271A4.3164,4.3164,0,0,0,174.5045,278.306Z" transform="translate(-52.9078 -67.5921)"/><path class="cls-8" d="M127.3027,283.8926h198.998a7.1229,7.1229,0,0,0-7.1229-7.123H134.4256a7.1229,7.1229,0,0,0-7.1229,7.123Z" transform="translate(-52.9078 -67.5921)"/></g></svg>