<svg xmlns="http://www.w3.org/2000/svg" viewBox="0 0 314.69 674.38"><defs><style>.cls-1{fill:none;stroke:#000;stroke-miterlimit:10;}</style></defs><g id="Layer_2" data-name="Layer 2"><g id="Layer_1-2" data-name="Layer 1"><path class="cls-1" d="M100.77.5q-6.19,23.36-12.4,46.72-22.12,83-44.28,166c-5.44,20.36-11.44,40.58-16.42,61.05-4.57,18.8,11.48,38,31.32,38.28,10.67.15,21.34,0,32,0h31.8c-1.91,7.74-3.45,15.18-5.74,22.39-.51,1.6-3.63,3.35-5.57,3.37-20.06.25-40.25,1.5-60.17-.18-26.88-2.26-45.46-23.41-50-48.21-3.07-16.67,3.52-31.32,7.45-46.52Q29.23,164.26,50.43,85.21C58,56.9,66.13,28.74,74,.5Z"/><path class="cls-1" d="M73.27,673.88C120.59,504.76,237.1,87.18,261.28.5h-27.2C206.82,98.05,91,512.59,46,673.88Z"/><path class="cls-1" d="M235,673.88c7.51-27.32,15.11-54.61,22.44-82,15.73-58.7,31.65-117.34,46.72-176.21,4.11-16,10.91-31.64,9.91-48.87-1.57-27.08-23.65-51.59-51.33-53.89-19.94-1.65-40.12-.41-60.19-.17-2,0-5.16,1.7-5.65,3.28-2.26,7.25-3.76,14.73-5.63,22.48,2.44,0,4.47,0,6.49,0,21.74.5,43.51.38,65.2,1.73,15.41,1,28,21.61,23.9,36.07-8.67,30.27-16.36,60.83-24.49,91.27Q239.65,552.79,216.91,638c-3.14,11.88-5.77,23.9-8.54,35.89Z"/></g></g></svg>