<svg xmlns="http://www.w3.org/2000/svg" viewBox="0 0 313.69 673.38"><g id="Layer_2" data-name="Layer 2"><g id="Layer_1-2" data-name="Layer 1"><path d="M100.27,0q-6.19,23.36-12.4,46.72-22.12,83-44.28,166c-5.44,20.36-11.44,40.58-16.42,61.05-4.57,18.8,11.48,38,31.32,38.28,10.67.15,21.34,0,32,0h31.8c-1.91,7.74-3.45,15.18-5.74,22.39-.51,1.6-3.63,3.35-5.57,3.37-20.06.25-40.25,1.5-60.17-.18-26.88-2.26-45.46-23.41-50-48.21C-2.28,272.82,4.31,258.17,8.24,243Q28.73,163.76,49.93,84.71C57.51,56.4,65.63,28.24,73.48,0Z"/><path d="M72.77,673.38C120.09,504.26,236.6,86.68,260.78,0h-27.2c-27.26,97.55-143,512.09-188.09,673.38Z"/><path d="M234.52,673.38c7.51-27.32,15.11-54.61,22.44-82,15.73-58.7,31.65-117.34,46.72-176.21,4.11-16,10.91-31.64,9.91-48.87-1.57-27.08-23.65-51.59-51.33-53.89-19.94-1.65-40.12-.41-60.19-.17-2,0-5.16,1.7-5.65,3.28-2.26,7.25-3.76,14.73-5.63,22.48,2.44,0,4.47,0,6.49,0,21.74.5,43.51.38,65.2,1.73,15.41,1,28,21.61,23.9,36.07-8.67,30.27-16.36,60.83-24.49,91.27q-22.74,85.18-45.48,170.38c-3.14,11.88-5.77,23.9-8.54,35.89Z"/></g></g></svg>