<?xml version="1.0" standalone="no"?>
<!DOCTYPE svg PUBLIC "-//W3C//DTD SVG 20010904//EN"
 "http://www.w3.org/TR/2001/REC-SVG-20010904/DTD/svg10.dtd">
<svg version="1.0" xmlns="http://www.w3.org/2000/svg"
 width="676.000000pt" height="676.000000pt" viewBox="0 0 676.000000 676.000000"
 preserveAspectRatio="xMidYMid meet">
<metadata>
Created by potrace 1.14, written by Peter Selinger 2001-2017
</metadata>
<g transform="translate(0.000000,676.000000) scale(0.100000,-0.100000)"
fill="#000000" stroke="none">
<path d="M2548 6749 c-5 -4 -18 -35 -28 -70 -144 -514 -198 -710 -249 -899
-104 -391 -141 -532 -172 -650 -16 -63 -43 -164 -59 -225 -113 -427 -186 -703
-207 -780 -28 -103 -33 -222 -14 -305 34 -144 138 -296 255 -372 118 -76 205
-91 536 -89 285 1 338 5 357 24 14 14 77 237 69 245 -2 2 -163 4 -357 5 -341
2 -356 3 -401 24 -104 48 -184 155 -195 257 -6 60 -5 65 132 571 57 209 162
603 235 875 72 272 160 603 195 735 124 462 168 630 169 644 1 10 -26 14 -127
15 -71 0 -133 -2 -139 -5z"/>
<path d="M4163 6752 c-12 -2 -24 -11 -27 -20 -5 -17 -237 -848 -301 -1077 -19
-66 -81 -291 -140 -500 -58 -209 -124 -445 -146 -525 -22 -80 -61 -217 -85
-305 -25 -88 -61 -216 -80 -285 -19 -69 -41 -147 -49 -175 -8 -27 -39 -138
-69 -245 -92 -330 -185 -666 -242 -870 -30 -107 -78 -276 -105 -375 -28 -99
-75 -265 -104 -370 -48 -168 -261 -932 -335 -1200 -95 -344 -212 -763 -216
-778 -5 -16 4 -17 137 -15 l143 3 88 315 c134 478 207 738 323 1155 58 209
114 409 125 445 10 36 87 310 170 610 84 300 176 633 206 740 102 364 186 665
204 730 10 36 34 121 53 190 19 69 145 521 280 1005 135 484 271 970 302 1080
31 110 71 255 90 322 18 68 36 127 40 133 4 6 -5 10 -22 11 -145 3 -222 4
-240 1z"/>
<path d="M3880 3629 c-114 -8 -103 7 -154 -202 -11 -44 -11 -59 -3 -62 7 -2
161 -6 344 -10 182 -3 354 -10 382 -15 89 -17 162 -83 206 -185 30 -72 23
-132 -43 -370 -33 -121 -95 -350 -137 -510 -113 -430 -138 -522 -225 -845
-160 -592 -303 -1140 -334 -1272 l-33 -148 138 0 137 0 11 33 c37 117 497
1829 655 2437 24 96 61 231 81 300 65 226 61 370 -16 526 -79 160 -221 274
-397 315 -50 12 -483 18 -612 8z"/>
</g>
</svg>
